<?xml version="1.0" encoding="UTF-8" standalone="no"?>
<!-- Created with Inkscape (http://www.inkscape.org/) -->

<svg
   width="385.50369mm"
   height="101.25874mm"
   viewBox="0 0 385.50369 101.25874"
   version="1.1"
   id="svg5"
   inkscape:version="1.1.2 (b8e25be833, 2022-02-05)"
   sodipodi:docname="Famous Birthdays 2014.svg"
   xmlns:inkscape="http://www.inkscape.org/namespaces/inkscape"
   xmlns:sodipodi="http://sodipodi.sourceforge.net/DTD/sodipodi-0.dtd"
   xmlns="http://www.w3.org/2000/svg"
   xmlns:svg="http://www.w3.org/2000/svg">
  <sodipodi:namedview
     id="namedview7"
     pagecolor="#ffffff"
     bordercolor="#666666"
     borderopacity="1.0"
     inkscape:pageshadow="2"
     inkscape:pageopacity="0.0"
     inkscape:pagecheckerboard="0"
     inkscape:document-units="mm"
     showgrid="false"
     inkscape:zoom="0.64052329"
     inkscape:cx="745.48421"
     inkscape:cy="346.59161"
     inkscape:window-width="1920"
     inkscape:window-height="1017"
     inkscape:window-x="-8"
     inkscape:window-y="-8"
     inkscape:window-maximized="1"
     inkscape:current-layer="g882" />
  <defs
     id="defs2" />
  <g
     inkscape:label="Layer 1"
     inkscape:groupmode="layer"
     id="layer1"
     transform="translate(-122.02193,-40.69831)">
    <g
       id="g882"
       transform="matrix(1.8001546,0,0,1.8001546,45.425921,0.80550733)">
      <path
         d="m 131.74992,76.395902 c -1.6567,0.871948 -3.83657,0.784753 -5.66766,0.697558 l -7.14997,-0.08719 0.0872,-20.141988 8.3707,0.0872 c 0.43597,0 0.87195,0 1.30792,0 1.6567,0 3.22621,0.697558 4.27254,2.005479 0.61037,0.871948 0.95915,1.918285 0.95915,2.964622 0,1.395116 -0.69756,2.703037 -1.83109,3.574985 -0.52317,0.348779 -1.13354,0.610363 -1.83109,0.697558 2.52864,0.348779 4.44693,2.615842 4.27254,5.14449 0,2.179869 -1.04634,4.098154 -2.79023,5.057296 z m -1.13354,-8.370696 c -1.30792,-0.610364 -2.70303,-0.871948 -4.09815,-0.784753 h -5.58046 l -0.0872,8.196307 h 5.14449 c 1.22073,0.08719 2.52865,0 3.74938,-0.17439 1.74389,-0.348779 2.96462,-1.918284 2.87742,-3.662179 0,-1.482311 -0.69755,-2.877427 -2.00548,-3.574985 z m 0.69756,-7.934723 c -1.04633,-1.395116 -2.87742,-1.307921 -4.35973,-1.307921 h -6.01644 l -0.0872,6.801191 h 5.66766 c 1.56951,0 3.48779,0.08719 4.62132,-1.307922 0.43598,-0.610363 0.69756,-1.395116 0.69756,-2.179869 0.0872,-0.697558 -0.0872,-1.395116 -0.52317,-2.005479 z"
         id="path828"
         style="stroke-width:0.871948" />
      <path
         d="m 136.54563,77.180655 0.0872,-20.054794 h 1.91829 l -0.0872,20.141989 z"
         id="path830"
         style="stroke-width:0.871948" />
      <path
         d="m 154.59494,77.355044 -6.27802,-8.981059 h -4.70852 v 8.893865 h -1.91828 l 0.0872,-20.141989 h 5.66766 c 1.13353,0 2.26707,0 3.4006,0.0872 0.78475,0.0872 3.57498,0.261584 4.9701,2.703037 0.52317,0.959143 0.78475,2.00548 0.78475,3.051817 0.0872,2.267064 -1.39511,4.359738 -3.57498,4.970101 -0.78476,0.261584 -1.6567,0.435974 -2.44146,0.435974 l 6.45242,8.981059 z m -0.52317,-16.741392 c -0.95914,-1.569506 -2.52864,-1.743896 -4.18534,-1.743896 h -6.19083 l -0.0872,7.847528 h 4.70852 c 0.52317,0 1.04634,0 1.56951,0 1.48231,-0.08719 2.96462,-0.08719 4.01095,-1.48231 0.52317,-0.697559 0.78476,-1.482311 0.69756,-2.354259 0.0872,-0.784753 -0.0872,-1.569505 -0.52317,-2.267063 z"
         id="path832"
         style="stroke-width:0.871948" />
      <path
         d="m 165.05831,58.956951 -0.0872,18.398093 h -1.91829 l 0.0872,-18.398093 h -6.36522 v -1.6567 l 14.56153,0.08719 v 1.6567 z"
         id="path834"
         style="stroke-width:0.871948" />
      <path
         d="m 186.857,77.529434 0.0872,-9.417034 -12.38166,-0.08719 -0.0872,9.417033 h -1.91829 l 0.0872,-20.141988 h 1.91828 l -0.0872,8.98106 12.38165,0.08719 0.0872,-8.981059 h 1.91828 l -0.0872,20.141988 z"
         id="path836"
         style="stroke-width:0.871948" />
      <path
         d="m 205.1679,75.26237 c -0.69756,0.784753 -1.56951,1.395116 -2.61584,1.83109 -1.30792,0.523169 -2.61585,0.523169 -5.40608,0.523169 h -5.23168 l 0.0872,-20.141989 h 5.40608 c 0.69755,0 1.39511,0 2.09267,0 2.26706,0.0872 4.01096,0.435974 5.66766,2.267064 1.13353,1.220727 2.70304,3.749374 2.61584,7.760333 0.0872,1.133532 0,5.057296 -2.61584,7.760333 z m -1.13353,-14.038355 c -0.52317,-0.697558 -1.22073,-1.220727 -2.00548,-1.482311 -1.13353,-0.435974 -2.09268,-0.435974 -4.44693,-0.435974 h -3.57499 l -0.0872,16.654198 h 3.05181 c 2.61585,0 4.27255,-0.08719 5.31888,-0.610363 0.87195,-0.435974 1.56951,-1.046337 2.00548,-1.83109 1.13353,-1.743895 1.6567,-3.749374 1.6567,-5.842048 0,-0.871948 0,-4.185349 -1.91828,-6.452412 z"
         id="path838"
         style="stroke-width:0.871948" />
      <path
         d="m 222.78124,77.791018 -2.26706,-6.103633 -8.98106,-0.08719 -2.35426,6.016438 h -2.09268 l 8.3707,-20.054794 h 1.56951 l 7.84752,20.141988 z m -6.6268,-17.962119 -4.01096,10.288981 7.76033,0.08719 z"
         id="path840"
         style="stroke-width:0.871948" />
      <path
         d="m 234.29095,64.973389 -3.13901,4.534128 -0.0872,8.283501 h -1.91828 l 0.0872,-8.283501 -7.41155,-11.858487 h 2.26706 l 6.10363,10.027397 3.05182,-4.708517"
         id="path842"
         style="stroke-width:0.871948" />
      <path
         d="m 250.24759,77.006265 c -1.48231,0.959143 -3.22621,1.482311 -5.0573,1.395116 -3.83657,0 -6.6268,-1.6567 -7.49875,-5.667659 l 1.91829,-0.959142 c 0,0.784753 0.0872,1.569506 0.43597,2.267064 0.52317,1.220726 2.09268,2.703037 5.14449,2.703037 0.78476,0 1.56951,-0.08719 2.26707,-0.261584 1.91828,-0.435974 3.2262,-2.092674 3.3134,-4.010959 0,-0.697558 -0.17439,-1.395116 -0.52317,-1.918284 -0.69756,-1.046337 -1.83109,-1.569506 -4.18535,-2.179869 -1.48231,-0.348779 -2.96462,-0.784753 -4.44693,-1.395116 -1.7439,-0.784753 -2.96462,-2.528648 -2.87743,-4.534128 0,-1.046337 0.34878,-2.092674 0.95914,-2.964621 1.7439,-2.267064 5.14449,-2.179869 5.66766,-2.179869 2.17987,-0.0872 4.27254,0.784753 5.75486,2.354258 0.52316,0.610364 0.87194,1.307922 1.13353,2.092674 l -1.7439,0.959143 c -0.17439,-0.610364 -0.43597,-1.220727 -0.78475,-1.743895 -1.04634,-1.395117 -2.70304,-2.179869 -4.35974,-2.092675 -1.39511,-0.08719 -2.70304,0.435974 -3.83657,1.220727 -0.61036,0.610363 -0.95914,1.395116 -0.95914,2.267064 0,0.697558 0.17439,1.307921 0.61036,1.918284 0.87195,1.133532 2.35426,1.569506 3.66218,1.918285 1.91829,0.523168 4.44694,1.046337 5.92925,2.354258 1.22072,0.959143 1.91828,2.441453 1.83109,3.923764 0.17439,1.83109 -0.78476,3.574985 -2.35426,4.534127 z"
         id="path844"
         style="stroke-width:0.871948" />
      <polygon
         class="st0"
         points="225.8,46.6 206.3,50.3 220.6,36.5 211,19.1 228.6,28.4 242.2,13.9 238.7,33.5 256.7,42 237,44.8 234.5,64.5 "
         id="polygon846"
         style="fill:#df1995;fill-opacity:1"
         transform="matrix(0.87194755,0,0,0.87194755,32.871065,10.040694)" />
      <path
         class="st0"
         d="m 48.9149,25.474165 19.61882,0.0872 -1.133532,5.580464 H 55.454506 l -1.48231,6.452412 h 11.509707 l -1.133532,5.580465 H 53.013053 l -2.528648,11.771291 h -7.934722 z"
         id="path848"
         style="fill:#df1995;fill-opacity:1;stroke-width:0.871948" />
      <path
         class="st0"
         d="m 77.166,25.56136 h 9.853008 l 4.708516,29.384632 H 83.792802 L 83.008049,48.66797 H 71.585536 l -3.48779,6.278022 h -8.457891 z m 3.923764,6.016438 v 0 l -6.365217,11.509708 h 7.585944 z"
         id="path850"
         style="fill:#df1995;fill-opacity:1;stroke-width:0.871948" />
      <path
         class="st0"
         d="m 98.703105,25.56136 h 12.294465 l 0.43597,19.706015 h 0.0872 l 9.24265,-19.706015 h 12.55604 l -6.27802,29.297438 h -7.67314 l 5.40608,-24.065753 h -0.0872 l -11.5969,24.152947 H 105.6787 L 104.63235,30.88024 h -0.0872 l -5.144487,24.065752 h -7.14997 z"
         id="path852"
         style="fill:#df1995;fill-opacity:1;stroke-width:0.871948" />
      <path
         class="st0"
         d="m 144.91632,55.556356 c -9.50422,0 -12.99201,-5.929244 -12.99201,-11.945682 0,-11.160928 5.92924,-18.398093 17.17736,-18.398093 9.50423,0 12.99202,5.929243 12.99202,12.032876 0,11.073734 -5.84205,18.398094 -17.17737,18.310899 z M 148.5785,31.05463 c -6.01643,0 -8.63228,6.97558 -8.63228,11.945681 0,3.66218 1.39512,6.801191 5.40608,6.801191 6.01644,0 8.63228,-6.97558 8.63228,-11.945681 0.0872,-3.66218 -1.30792,-6.801191 -5.40608,-6.801191 z"
         id="path854"
         style="fill:#df1995;fill-opacity:1;stroke-width:0.871948" />
      <path
         class="st0"
         d="m 189.56004,39.512521 c -1.91829,9.329839 -4.27254,16.218224 -14.9103,16.13103 -6.62681,0 -11.7713,-2.354259 -11.7713,-9.242644 0,-1.83109 0.26159,-3.749375 0.61037,-5.580465 L 166.8894,25.73575 h 7.93473 l -3.57499,16.567003 c -0.26158,1.046337 -0.43597,2.092674 -0.52317,3.226206 0,2.354258 1.39512,4.272543 4.18535,4.272543 5.0573,0 5.84205,-6.016438 6.88839,-10.724955 l 2.96462,-13.253603 h 7.76033 z"
         id="path856"
         style="fill:#df1995;fill-opacity:1;stroke-width:0.871948" />
      <path
         class="st0"
         d="m 213.01543,32.536941 c -2.00548,-0.959143 -4.27255,-1.395117 -6.45241,-1.395117 -3.13902,0 -5.66766,0.435974 -5.66766,2.790233 0,4.185348 11.42251,2.615842 11.33532,11.596902 0,8.109112 -7.58595,10.201786 -14.38714,10.201786 -3.05182,-0.08719 -6.10363,-0.610363 -9.06825,-1.569505 l 1.83109,-5.929244 c 1.5695,1.046337 4.62132,1.656701 7.23716,1.743895 2.44145,0 6.27802,-0.435973 6.27802,-3.48779 0,-4.708516 -11.42251,-2.964621 -11.33532,-11.248123 0,-7.585944 6.62681,-9.853007 13.07922,-9.765813 3.57498,0 7.06277,0.435974 8.98106,1.307922 z"
         id="path858"
         style="fill:#df1995;fill-opacity:1;stroke-width:0.871948" />
    </g>
  </g>
  <style
     type="text/css"
     id="style824">
	.st0{fill:#DF1995;}
</style>
</svg>
